<mxfile host="app.diagrams.net" agent="Mozilla/5.0 (X11; Linux x86_64) AppleWebKit/537.36 (KHTML, like Gecko) Chrome/130.0.0.0 Safari/537.36" version="24.8.3">
  <diagram name="Page-1" id="OL_WsV5nZnV1GZg_doOH">
    <mxGraphModel grid="1" page="1" gridSize="10" guides="1" tooltips="1" connect="1" arrows="1" fold="1" pageScale="1" pageWidth="850" pageHeight="1100" math="0" shadow="0">
      <root>
        <mxCell id="0" />
        <mxCell id="1" parent="0" />
        <mxCell id="nk4fw3W0jicYouDhLSpa-5" style="edgeStyle=orthogonalEdgeStyle;rounded=0;orthogonalLoop=1;jettySize=auto;html=1;" edge="1" parent="1" source="nk4fw3W0jicYouDhLSpa-4" target="nk4fw3W0jicYouDhLSpa-8">
          <mxGeometry relative="1" as="geometry">
            <mxPoint x="210" y="185" as="targetPoint" />
          </mxGeometry>
        </mxCell>
        <mxCell id="nk4fw3W0jicYouDhLSpa-4" value="Post Offer" style="html=1;dashed=0;whiteSpace=wrap;fillColor=#66B2FF;" vertex="1" parent="1">
          <mxGeometry x="30" y="160" width="100" height="50" as="geometry" />
        </mxCell>
        <mxCell id="nk4fw3W0jicYouDhLSpa-9" style="edgeStyle=orthogonalEdgeStyle;rounded=0;orthogonalLoop=1;jettySize=auto;html=1;" edge="1" parent="1" source="nk4fw3W0jicYouDhLSpa-8" target="nk4fw3W0jicYouDhLSpa-10">
          <mxGeometry relative="1" as="geometry">
            <mxPoint x="270" y="290" as="targetPoint" />
          </mxGeometry>
        </mxCell>
        <mxCell id="nk4fw3W0jicYouDhLSpa-15" style="edgeStyle=orthogonalEdgeStyle;rounded=0;orthogonalLoop=1;jettySize=auto;html=1;" edge="1" parent="1" source="nk4fw3W0jicYouDhLSpa-8" target="nk4fw3W0jicYouDhLSpa-16">
          <mxGeometry relative="1" as="geometry">
            <mxPoint x="450.0588235294117" y="79.96078431372553" as="targetPoint" />
          </mxGeometry>
        </mxCell>
        <mxCell id="nk4fw3W0jicYouDhLSpa-8" value="" style="shape=rhombus;html=1;dashed=0;whiteSpace=wrap;perimeter=rhombusPerimeter;" vertex="1" parent="1">
          <mxGeometry x="250" y="160" width="60" height="50" as="geometry" />
        </mxCell>
        <mxCell id="nk4fw3W0jicYouDhLSpa-17" style="edgeStyle=orthogonalEdgeStyle;rounded=0;orthogonalLoop=1;jettySize=auto;html=1;" edge="1" parent="1" source="nk4fw3W0jicYouDhLSpa-10" target="nk4fw3W0jicYouDhLSpa-19">
          <mxGeometry relative="1" as="geometry">
            <mxPoint x="410" y="345" as="targetPoint" />
          </mxGeometry>
        </mxCell>
        <mxCell id="nk4fw3W0jicYouDhLSpa-18" style="edgeStyle=orthogonalEdgeStyle;rounded=0;orthogonalLoop=1;jettySize=auto;html=1;" edge="1" parent="1" source="nk4fw3W0jicYouDhLSpa-10" target="nk4fw3W0jicYouDhLSpa-4">
          <mxGeometry relative="1" as="geometry" />
        </mxCell>
        <mxCell id="nk4fw3W0jicYouDhLSpa-10" value="Counter Offer" style="html=1;dashed=0;whiteSpace=wrap;fillColor=#FFB366;" vertex="1" parent="1">
          <mxGeometry x="230" y="320" width="100" height="50" as="geometry" />
        </mxCell>
        <mxCell id="nk4fw3W0jicYouDhLSpa-22" style="edgeStyle=orthogonalEdgeStyle;rounded=0;orthogonalLoop=1;jettySize=auto;html=1;" edge="1" parent="1" source="nk4fw3W0jicYouDhLSpa-11" target="nk4fw3W0jicYouDhLSpa-35">
          <mxGeometry relative="1" as="geometry" />
        </mxCell>
        <mxCell id="nk4fw3W0jicYouDhLSpa-30" style="edgeStyle=orthogonalEdgeStyle;rounded=0;orthogonalLoop=1;jettySize=auto;html=1;" edge="1" parent="1" source="nk4fw3W0jicYouDhLSpa-35" target="nk4fw3W0jicYouDhLSpa-37">
          <mxGeometry relative="1" as="geometry">
            <Array as="points" />
          </mxGeometry>
        </mxCell>
        <mxCell id="nk4fw3W0jicYouDhLSpa-11" value="Contract" style="html=1;dashed=0;whiteSpace=wrap;fillColor=#FFB366;" vertex="1" parent="1">
          <mxGeometry x="860" y="320" width="100" height="50" as="geometry" />
        </mxCell>
        <mxCell id="nk4fw3W0jicYouDhLSpa-16" value="decline" style="shape=parallelogram;perimeter=parallelogramPerimeter;whiteSpace=wrap;html=1;dashed=0;fillColor=#FFB366;" vertex="1" parent="1">
          <mxGeometry x="440" y="160" width="100" height="50" as="geometry" />
        </mxCell>
        <mxCell id="nk4fw3W0jicYouDhLSpa-20" style="edgeStyle=orthogonalEdgeStyle;rounded=0;orthogonalLoop=1;jettySize=auto;html=1;" edge="1" parent="1" source="nk4fw3W0jicYouDhLSpa-19" target="nk4fw3W0jicYouDhLSpa-33">
          <mxGeometry relative="1" as="geometry" />
        </mxCell>
        <mxCell id="nk4fw3W0jicYouDhLSpa-31" style="edgeStyle=orthogonalEdgeStyle;rounded=0;orthogonalLoop=1;jettySize=auto;html=1;" edge="1" parent="1" source="nk4fw3W0jicYouDhLSpa-33" target="nk4fw3W0jicYouDhLSpa-16">
          <mxGeometry relative="1" as="geometry">
            <Array as="points">
              <mxPoint x="690" y="185" />
            </Array>
          </mxGeometry>
        </mxCell>
        <mxCell id="nk4fw3W0jicYouDhLSpa-19" value="Approval" style="html=1;dashed=0;whiteSpace=wrap;fillColor=#66B2FF;" vertex="1" parent="1">
          <mxGeometry x="440" y="320" width="100" height="50" as="geometry" />
        </mxCell>
        <mxCell id="nk4fw3W0jicYouDhLSpa-24" style="edgeStyle=orthogonalEdgeStyle;rounded=0;orthogonalLoop=1;jettySize=auto;html=1;" edge="1" parent="1" source="nk4fw3W0jicYouDhLSpa-21" target="nk4fw3W0jicYouDhLSpa-25">
          <mxGeometry relative="1" as="geometry">
            <Array as="points">
              <mxPoint x="1520" y="345" />
            </Array>
          </mxGeometry>
        </mxCell>
        <mxCell id="nk4fw3W0jicYouDhLSpa-21" value="PR" style="html=1;dashed=0;whiteSpace=wrap;fillColor=#66B2FF;" vertex="1" parent="1">
          <mxGeometry x="1360" y="320" width="100" height="50" as="geometry" />
        </mxCell>
        <mxCell id="nk4fw3W0jicYouDhLSpa-29" style="edgeStyle=orthogonalEdgeStyle;rounded=0;orthogonalLoop=1;jettySize=auto;html=1;" edge="1" parent="1" source="nk4fw3W0jicYouDhLSpa-23" target="nk4fw3W0jicYouDhLSpa-28">
          <mxGeometry relative="1" as="geometry">
            <Array as="points">
              <mxPoint x="1830" y="190" />
            </Array>
          </mxGeometry>
        </mxCell>
        <mxCell id="nk4fw3W0jicYouDhLSpa-23" value="Zap" style="html=1;dashed=0;whiteSpace=wrap;fillColor=#FFB366;" vertex="1" parent="1">
          <mxGeometry x="1780" y="320" width="100" height="50" as="geometry" />
        </mxCell>
        <mxCell id="nk4fw3W0jicYouDhLSpa-26" style="edgeStyle=orthogonalEdgeStyle;rounded=0;orthogonalLoop=1;jettySize=auto;html=1;" edge="1" parent="1" source="nk4fw3W0jicYouDhLSpa-25" target="nk4fw3W0jicYouDhLSpa-23">
          <mxGeometry relative="1" as="geometry" />
        </mxCell>
        <mxCell id="nk4fw3W0jicYouDhLSpa-27" style="edgeStyle=orthogonalEdgeStyle;rounded=0;orthogonalLoop=1;jettySize=auto;html=1;" edge="1" parent="1" source="nk4fw3W0jicYouDhLSpa-25" target="nk4fw3W0jicYouDhLSpa-28">
          <mxGeometry relative="1" as="geometry">
            <mxPoint x="1620" y="140" as="targetPoint" />
          </mxGeometry>
        </mxCell>
        <mxCell id="nk4fw3W0jicYouDhLSpa-25" value="" style="shape=rhombus;html=1;dashed=0;whiteSpace=wrap;perimeter=rhombusPerimeter;" vertex="1" parent="1">
          <mxGeometry x="1590" y="320" width="60" height="50" as="geometry" />
        </mxCell>
        <mxCell id="nk4fw3W0jicYouDhLSpa-28" value="review" style="shape=parallelogram;perimeter=parallelogramPerimeter;whiteSpace=wrap;html=1;dashed=0;fillColor=#99FF99;" vertex="1" parent="1">
          <mxGeometry x="1570" y="170" width="100" height="50" as="geometry" />
        </mxCell>
        <mxCell id="nk4fw3W0jicYouDhLSpa-34" style="edgeStyle=orthogonalEdgeStyle;rounded=0;orthogonalLoop=1;jettySize=auto;html=1;" edge="1" parent="1" source="nk4fw3W0jicYouDhLSpa-33" target="nk4fw3W0jicYouDhLSpa-11">
          <mxGeometry relative="1" as="geometry" />
        </mxCell>
        <mxCell id="nk4fw3W0jicYouDhLSpa-33" value="" style="shape=rhombus;html=1;dashed=0;whiteSpace=wrap;perimeter=rhombusPerimeter;" vertex="1" parent="1">
          <mxGeometry x="660" y="320" width="60" height="50" as="geometry" />
        </mxCell>
        <mxCell id="nk4fw3W0jicYouDhLSpa-36" style="edgeStyle=orthogonalEdgeStyle;rounded=0;orthogonalLoop=1;jettySize=auto;html=1;" edge="1" parent="1" source="nk4fw3W0jicYouDhLSpa-35" target="nk4fw3W0jicYouDhLSpa-21">
          <mxGeometry relative="1" as="geometry" />
        </mxCell>
        <mxCell id="nk4fw3W0jicYouDhLSpa-35" value="" style="shape=rhombus;html=1;dashed=0;whiteSpace=wrap;perimeter=rhombusPerimeter;" vertex="1" parent="1">
          <mxGeometry x="1120" y="320" width="60" height="50" as="geometry" />
        </mxCell>
        <mxCell id="nk4fw3W0jicYouDhLSpa-37" value="review" style="shape=parallelogram;perimeter=parallelogramPerimeter;whiteSpace=wrap;html=1;dashed=0;fillColor=#FFB366;" vertex="1" parent="1">
          <mxGeometry x="1100" y="170" width="100" height="50" as="geometry" />
        </mxCell>
      </root>
    </mxGraphModel>
  </diagram>
</mxfile>
